<?xml version="1.0" encoding="iso-8859-1"?>
<!-- Generator: Adobe Illustrator 19.0.0, SVG Export Plug-In . SVG Version: 6.00 Build 0)  -->
<svg version="1.1" id="Layer_1" xmlns="http://www.w3.org/2000/svg" xmlns:xlink="http://www.w3.org/1999/xlink" x="0px" y="0px"
	 viewBox="0 0 512.003 512.003" style="enable-background:new 0 0 512.003 512.003;" xml:space="preserve">
<g>
	<g>
		<g>
			<path d="M473.62,8.535H38.394c-21.171,0-38.391,17.22-38.391,38.391v260.275h512V46.926
				C512.003,25.755,494.782,8.535,473.62,8.535z M210.955,244.968c-1.664,1.664-3.849,2.5-6.033,2.5c-2.185,0-4.369-0.836-6.033-2.5
				l-67.814-67.806c-1.016-0.853-1.835-1.954-2.364-3.226c-1.323-3.191-0.648-6.861,1.792-9.301l68.326-68.326
				c3.337-3.337,8.73-3.337,12.066,0s3.337,8.738,0,12.066l-62.234,62.234l62.293,62.293
				C214.283,236.238,214.283,241.631,210.955,244.968z M281.466,104.475l-34.133,136.533c-0.973,3.874-4.446,6.46-8.269,6.46
				c-0.691,0-1.382-0.077-2.082-0.256c-4.574-1.143-7.347-5.777-6.204-10.351l34.133-136.533c1.143-4.565,5.794-7.347,10.342-6.204
				C279.828,95.267,282.609,99.901,281.466,104.475z M381.741,176.701l-68.326,68.326c-1.664,1.664-3.849,2.5-6.033,2.5
				c-2.185,0-4.369-0.836-6.033-2.5c-3.336-3.337-3.336-8.738,0-12.066l62.234-62.234l-62.293-62.293
				c-3.337-3.336-3.337-8.73,0-12.066c3.328-3.337,8.73-3.337,12.066,0l67.797,67.797c1.024,0.862,1.852,1.963,2.381,3.234
				C384.856,170.591,384.182,174.261,381.741,176.701z"/>
			<path d="M0,362.677c0,21.171,17.22,38.391,38.391,38.391h152.363c1.212,14.95-5.274,29.705-17.263,38.161l-15.351,10.829
				c-1.263,0.879-2.176,2.031-2.935,3.285c-10.735,3.038-18.671,12.826-18.671,24.525c0,14.114,11.486,25.6,25.6,25.6h187.733
				c14.123,0,25.6-11.486,25.6-25.6c0-11.699-7.927-21.478-18.662-24.525c-0.742-1.237-1.647-2.381-2.884-3.251l-15.386-10.846
				c-12.015-8.465-18.517-23.253-17.289-38.178h152.371c21.163,0,38.383-17.22,38.383-38.391v-38.409H0V362.677z M304.145,401.068
				c-1.143,19.883,7.526,39.415,23.279,51.2H184.576c15.761-11.785,24.431-31.317,23.287-51.2H304.145z"/>
		</g>
	</g>
</g>
<g>
</g>
<g>
</g>
<g>
</g>
<g>
</g>
<g>
</g>
<g>
</g>
<g>
</g>
<g>
</g>
<g>
</g>
<g>
</g>
<g>
</g>
<g>
</g>
<g>
</g>
<g>
</g>
<g>
</g>
</svg>
